<mxfile host="app.diagrams.net" modified="2024-06-11T16:32:35.970Z" agent="Mozilla/5.0 (Windows NT 10.0; Win64; x64) AppleWebKit/537.36 (KHTML, like Gecko) Chrome/125.0.0.0 Safari/537.36 Edg/125.0.0.0" etag="ZUlwGXR2JcTbfR0VnJ82" version="24.5.3" type="device">
  <diagram name="Page-1" id="13e1069c-82ec-6db2-03f1-153e76fe0fe0">
    <mxGraphModel dx="582" dy="320" grid="1" gridSize="10" guides="1" tooltips="1" connect="1" arrows="1" fold="1" page="1" pageScale="1" pageWidth="1100" pageHeight="850" background="none" math="0" shadow="0">
      <root>
        <mxCell id="0" />
        <mxCell id="1" parent="0" />
        <mxCell id="kFZaCCrDRlSZErMMmTMo-7" value="Sender" style="shape=umlLifeline;perimeter=lifelinePerimeter;whiteSpace=wrap;html=1;container=1;collapsible=0;recursiveResize=0;outlineConnect=0;rounded=1;shadow=1;comic=0;labelBackgroundColor=none;strokeWidth=1;fontFamily=Verdana;fontSize=12;align=center;fillColor=#d5e8d4;strokeColor=#82b366;size=30;" parent="1" vertex="1">
          <mxGeometry x="765" y="90" width="70" height="250" as="geometry" />
        </mxCell>
        <mxCell id="kFZaCCrDRlSZErMMmTMo-4" value="Receiver" style="shape=umlLifeline;perimeter=lifelinePerimeter;whiteSpace=wrap;html=1;container=1;collapsible=0;recursiveResize=0;outlineConnect=0;rounded=1;shadow=1;comic=0;labelBackgroundColor=none;strokeWidth=1;fontFamily=Verdana;fontSize=12;align=center;fillColor=#dae8fc;strokeColor=#6c8ebf;size=30;" parent="1" vertex="1">
          <mxGeometry x="875" y="90" width="70" height="250" as="geometry" />
        </mxCell>
        <mxCell id="kFZaCCrDRlSZErMMmTMo-5" value="" style="html=1;points=[];perimeter=orthogonalPerimeter;rounded=1;shadow=1;comic=0;labelBackgroundColor=none;strokeWidth=1;fontFamily=Verdana;fontSize=12;align=center;fillColor=#dae8fc;strokeColor=#6c8ebf;" parent="kFZaCCrDRlSZErMMmTMo-4" vertex="1">
          <mxGeometry x="30" y="120" width="10" height="30" as="geometry" />
        </mxCell>
        <mxCell id="kFZaCCrDRlSZErMMmTMo-9" value="&lt;font style=&quot;font-size: 9px;&quot;&gt;Send file&lt;/font&gt;" style="html=1;verticalAlign=bottom;endArrow=classic;labelBackgroundColor=none;fontFamily=Verdana;fontSize=12;elbow=vertical;endFill=1;shadow=1;" parent="kFZaCCrDRlSZErMMmTMo-4" edge="1">
          <mxGeometry relative="1" as="geometry">
            <mxPoint x="-74.88" y="175" as="sourcePoint" />
            <mxPoint x="34.87" y="174.81" as="targetPoint" />
            <Array as="points">
              <mxPoint x="5.369999999999999" y="174.81" />
            </Array>
          </mxGeometry>
        </mxCell>
        <mxCell id="kFZaCCrDRlSZErMMmTMo-22" value="" style="rounded=1;whiteSpace=wrap;html=1;fillColor=none;strokeColor=#9673a6;shadow=1;dashed=1;" parent="kFZaCCrDRlSZErMMmTMo-4" vertex="1">
          <mxGeometry x="-85" y="190" width="130" height="50" as="geometry" />
        </mxCell>
        <mxCell id="kFZaCCrDRlSZErMMmTMo-23" value="" style="endArrow=classic;html=1;rounded=0;shadow=1;" parent="kFZaCCrDRlSZErMMmTMo-4" edge="1">
          <mxGeometry width="50" height="50" relative="1" as="geometry">
            <mxPoint x="35" y="230" as="sourcePoint" />
            <mxPoint x="-75" y="230" as="targetPoint" />
          </mxGeometry>
        </mxCell>
        <mxCell id="kFZaCCrDRlSZErMMmTMo-24" value="&lt;font style=&quot;font-size: 9px;&quot;&gt;Acknowledge receipt&lt;/font&gt;" style="edgeLabel;html=1;align=center;verticalAlign=middle;resizable=0;points=[];" parent="kFZaCCrDRlSZErMMmTMo-23" vertex="1" connectable="0">
          <mxGeometry x="0.0371" y="-7" relative="1" as="geometry">
            <mxPoint x="2" y="-3" as="offset" />
          </mxGeometry>
        </mxCell>
        <mxCell id="kFZaCCrDRlSZErMMmTMo-25" value="&lt;font style=&quot;font-size: 9px;&quot;&gt;File transfer success&lt;/font&gt;" style="text;html=1;align=center;verticalAlign=middle;whiteSpace=wrap;rounded=0;" parent="kFZaCCrDRlSZErMMmTMo-4" vertex="1">
          <mxGeometry x="-75" y="190" width="90" height="10" as="geometry" />
        </mxCell>
        <mxCell id="kFZaCCrDRlSZErMMmTMo-13" value="SocketServer" style="shape=umlLifeline;perimeter=lifelinePerimeter;whiteSpace=wrap;html=1;container=1;collapsible=0;recursiveResize=0;outlineConnect=0;rounded=1;shadow=1;comic=0;labelBackgroundColor=none;strokeWidth=1;fontFamily=Verdana;fontSize=12;align=center;fillColor=#f8cecc;strokeColor=#b85450;size=30;" parent="1" vertex="1">
          <mxGeometry x="995" y="90" width="90" height="250" as="geometry" />
        </mxCell>
        <mxCell id="kFZaCCrDRlSZErMMmTMo-17" value="&lt;font style=&quot;font-size: 9px;&quot;&gt;OTP&lt;/font&gt;" style="html=1;verticalAlign=bottom;endArrow=none;labelBackgroundColor=none;fontFamily=Verdana;fontSize=12;edgeStyle=elbowEdgeStyle;elbow=vertical;startArrow=classic;startFill=1;endFill=0;shadow=1;exitX=1.144;exitY=1.03;exitDx=0;exitDy=0;exitPerimeter=0;dashed=1;dashPattern=8 8;" parent="1" edge="1" source="kFZaCCrDRlSZErMMmTMo-8">
          <mxGeometry x="0.054" relative="1" as="geometry">
            <mxPoint x="775" y="180.14" as="sourcePoint" />
            <mxPoint x="1040" y="180" as="targetPoint" />
            <mxPoint as="offset" />
          </mxGeometry>
        </mxCell>
        <mxCell id="kFZaCCrDRlSZErMMmTMo-18" value="" style="endArrow=classic;html=1;rounded=0;shadow=1;" parent="1" edge="1">
          <mxGeometry width="50" height="50" relative="1" as="geometry">
            <mxPoint x="915" y="210" as="sourcePoint" />
            <mxPoint x="1040" y="210" as="targetPoint" />
          </mxGeometry>
        </mxCell>
        <mxCell id="kFZaCCrDRlSZErMMmTMo-20" value="&lt;font style=&quot;font-size: 9px;&quot;&gt;Enter OTP and connect&lt;/font&gt;" style="edgeLabel;html=1;align=center;verticalAlign=middle;resizable=0;points=[];" parent="kFZaCCrDRlSZErMMmTMo-18" vertex="1" connectable="0">
          <mxGeometry x="0.0742" y="4" relative="1" as="geometry">
            <mxPoint x="-8" y="-6" as="offset" />
          </mxGeometry>
        </mxCell>
        <mxCell id="kFZaCCrDRlSZErMMmTMo-19" value="" style="endArrow=classic;html=1;rounded=0;shadow=1;dashed=1;dashPattern=8 8;" parent="1" edge="1">
          <mxGeometry width="50" height="50" relative="1" as="geometry">
            <mxPoint x="1040" y="240" as="sourcePoint" />
            <mxPoint x="915" y="240" as="targetPoint" />
          </mxGeometry>
        </mxCell>
        <mxCell id="kFZaCCrDRlSZErMMmTMo-21" value="&lt;font style=&quot;font-size: 9px;&quot;&gt;Connection established&lt;/font&gt;" style="edgeLabel;html=1;align=center;verticalAlign=middle;resizable=0;points=[];" parent="kFZaCCrDRlSZErMMmTMo-19" vertex="1" connectable="0">
          <mxGeometry x="0.0162" y="-4" relative="1" as="geometry">
            <mxPoint y="-6" as="offset" />
          </mxGeometry>
        </mxCell>
        <mxCell id="1_gaNQd7kmrHbm_JZgrm-2" value="&lt;font style=&quot;font-size: 9px;&quot;&gt;Single share sequence diagram&lt;/font&gt;" style="text;html=1;align=center;verticalAlign=middle;whiteSpace=wrap;rounded=0;" parent="1" vertex="1">
          <mxGeometry x="820" y="350" width="180" height="10" as="geometry" />
        </mxCell>
        <mxCell id="kFZaCCrDRlSZErMMmTMo-8" value="" style="html=1;points=[];perimeter=orthogonalPerimeter;rounded=1;shadow=1;comic=0;labelBackgroundColor=none;strokeWidth=1;fontFamily=Verdana;fontSize=12;align=center;fillColor=#d5e8d4;strokeColor=#82b366;" parent="1" vertex="1">
          <mxGeometry x="795" y="150" width="10" height="30" as="geometry" />
        </mxCell>
        <mxCell id="kFZaCCrDRlSZErMMmTMo-10" value="&lt;font style=&quot;font-size: 9px;&quot;&gt;Create new OTP&lt;/font&gt;" style="html=1;verticalAlign=bottom;endArrow=classic;labelBackgroundColor=none;fontFamily=Verdana;fontSize=12;elbow=vertical;rounded=1;endFill=1;shadow=1;exitX=0.949;exitY=0.006;exitDx=0;exitDy=0;exitPerimeter=0;" parent="1" edge="1" source="kFZaCCrDRlSZErMMmTMo-8">
          <mxGeometry x="-0.0651" relative="1" as="geometry">
            <mxPoint x="770" y="150" as="sourcePoint" />
            <mxPoint x="1040" y="150" as="targetPoint" />
            <mxPoint as="offset" />
          </mxGeometry>
        </mxCell>
      </root>
    </mxGraphModel>
  </diagram>
</mxfile>
